<svg width="512" height="512" viewBox="0 0 512 512" fill="none" xmlns="http://www.w3.org/2000/svg">
  <rect width="512" height="512" fill="#6366f1"/>
  <path d="M256 128C221.5 128 193.5 156 193.5 190.5V224H160C142.3 224 128 238.3 128 256V384C128 401.7 142.3 416 160 416H352C369.7 416 384 401.7 384 384V256C384 238.3 369.7 224 352 224H318.5V190.5C318.5 156 290.5 128 256 128ZM288 224H224V190.5C224 172.8 238.3 158.5 256 158.5C273.7 158.5 288 172.8 288 190.5V224ZM256 288C269.3 288 280 298.7 280 312C280 321.3 274.5 329.3 266.5 333L272 368H240L245.5 333C237.5 329.3 232 321.3 232 312C232 298.7 242.7 288 256 288Z" fill="white"/>
  <text x="50%" y="80" text-anchor="middle" fill="white" font-family="Arial, sans-serif" font-size="48" font-weight="bold">KeyBox</text>
</svg>
